<?xml version="1.0" standalone="no"?>
<!DOCTYPE svg PUBLIC "-//W3C//DTD SVG 20010904//EN"
 "http://www.w3.org/TR/2001/REC-SVG-20010904/DTD/svg10.dtd">
<svg version="1.0" xmlns="http://www.w3.org/2000/svg"
 width="240.000000pt" height="240.000000pt" viewBox="0 0 240.000000 240.000000"
 preserveAspectRatio="xMidYMid meet">
<metadata>
Created by potrace 1.10, written by Peter Selinger 2001-2011
</metadata>
<g transform="translate(0.000000,240.000000) scale(0.100000,-0.100000)"
fill="#ffffff" stroke="none">
<path d="M782 2171 c-67 -6 -92 -24 -92 -64 0 -54 44 -81 144 -90 80 -8 127
-31 137 -70 4 -15 11 -83 15 -151 8 -141 -1 -169 -63 -208 -32 -19 -51 -23
-123 -23 -47 0 -120 6 -162 14 -60 10 -94 11 -160 2 -80 -11 -188 -52 -188
-72 0 -5 -29 -39 -65 -77 -53 -57 -69 -83 -95 -153 -68 -184 -84 -322 -59
-519 11 -95 54 -228 95 -298 34 -57 138 -163 179 -181 80 -35 173 -61 222 -61
29 0 121 11 205 25 171 28 310 32 384 11 126 -37 344 -38 399 -2 56 37 77 107
50 171 -9 22 -35 69 -58 105 l-42 64 1 191 c2 496 3 501 60 565 29 32 48 42
116 60 93 25 148 22 200 -13 38 -26 67 -96 68 -167 0 -25 6 -79 14 -120 38
-201 43 -527 10 -591 -7 -14 -26 -34 -41 -44 -97 -61 -122 -144 -55 -179 79
-41 288 -58 376 -32 100 30 112 77 43 165 -24 31 -49 66 -56 79 -21 39 -24
146 -11 324 20 267 18 433 -4 493 -92 252 -190 339 -381 340 -71 0 -88 -4
-148 -33 -72 -36 -89 -36 -143 -4 -46 29 -58 81 -58 262 -1 150 -2 156 -28
202 -19 32 -41 52 -70 66 -40 19 -62 20 -298 20 -140 -1 -284 -4 -318 -7z
m464 -257 c18 -44 18 -108 -2 -164 -14 -39 -16 -92 -14 -385 5 -543 5 -574 -2
-697 -4 -84 -12 -129 -25 -155 -28 -58 -40 -52 -54 28 -10 59 -10 81 1 133 11
47 14 166 15 526 1 451 6 553 36 708 11 57 23 59 45 6z m-526 -523 c28 -11 70
-34 94 -53 43 -32 125 -146 145 -201 17 -45 14 -364 -5 -481 -23 -146 -21
-144 -161 -191 -191 -65 -314 -54 -401 36 -55 56 -115 190 -120 265 -7 100 17
321 40 379 11 28 31 79 44 114 28 77 42 93 107 126 66 32 180 35 257 6z"/>
<path d="M585 1026 c-60 -27 -101 -95 -90 -147 10 -44 59 -79 108 -79 59 0
118 36 135 82 13 33 12 41 -4 74 -33 66 -95 95 -149 70z"/>
</g>
</svg>
